<svg data-v-fde0c5aa="" xmlns="http://www.w3.org/2000/svg" viewBox="0 0 300 300" class="iconLeftSlogan"><!----><defs data-v-fde0c5aa=""><!----></defs><rect data-v-fde0c5aa="" fill="transparent" x="0" y="0" width="300px" height="300px" class="logo-background-square"></rect><defs data-v-fde0c5aa=""><!----></defs><g data-v-fde0c5aa="" id="7a3e2672-916b-443b-b2bf-82acfcc76224" fill="#000000" transform="matrix(3.479004130536761,0,0,3.479004130536761,101.42698743353566,110.25451484980255)"><path d="M2.30 10.09L2.30 10.09L2.30 10.09Q2.06 10.28 2.04 10.77L2.04 10.77L2.04 10.77Q2.02 11.25 2.21 11.75L2.21 11.75L2.21 11.75Q2.39 12.25 2.78 12.63L2.78 12.63L2.78 12.63Q3.16 13.02 3.73 13.02L3.73 13.02L3.73 13.02Q4.10 13.02 4.37 12.84L4.37 12.84L4.37 12.84Q4.63 12.66 4.81 12.39L4.81 12.39L4.81 12.39Q4.98 12.13 5.06 11.80L5.06 11.80L5.06 11.80Q5.14 11.47 5.14 11.16L5.14 11.16L5.14 11.16Q5.14 10.71 4.97 10.40L4.97 10.40L4.97 10.40Q4.80 10.10 4.52 9.88L4.52 9.88L4.52 9.88Q4.24 9.65 3.88 9.50L3.88 9.50L3.88 9.50Q3.51 9.34 3.14 9.17L3.14 9.17L3.14 9.17Q2.80 9.04 2.32 8.83L2.32 8.83L2.32 8.83Q1.85 8.61 1.41 8.26L1.41 8.26L1.41 8.26Q0.97 7.92 0.66 7.40L0.66 7.40L0.66 7.40Q0.36 6.89 0.36 6.14L0.36 6.14L0.36 6.14Q0.36 5.65 0.62 5.14L0.62 5.14L0.62 5.14Q0.88 4.63 1.35 4.22L1.35 4.22L1.35 4.22Q1.83 3.80 2.51 3.54L2.51 3.54L2.51 3.54Q3.19 3.28 4.03 3.28L4.03 3.28L4.03 3.28Q4.87 3.28 5.39 3.43L5.39 3.43L5.39 3.43Q5.91 3.58 6.19 3.82L6.19 3.82L6.19 3.82Q6.48 4.06 6.58 4.34L6.58 4.34L6.58 4.34Q6.69 4.62 6.69 4.87L6.69 4.87L6.69 4.87Q6.69 5.11 6.54 5.37L6.54 5.37L6.54 5.37Q6.38 5.62 6.18 5.83L6.18 5.83L6.18 5.83Q5.97 6.04 5.76 6.20L5.76 6.20L5.76 6.20Q5.54 6.36 5.40 6.41L5.40 6.41L5.40 6.41Q5.47 6.23 5.54 5.92L5.54 5.92L5.54 5.92Q5.61 5.61 5.50 5.29L5.50 5.29L5.50 5.29Q5.40 4.98 5.02 4.74L5.02 4.74L5.02 4.74Q4.65 4.51 3.81 4.51L3.81 4.51L3.81 4.51Q3.34 4.51 2.88 4.66L2.88 4.66L2.88 4.66Q2.43 4.81 2.08 5.05L2.08 5.05L2.08 5.05Q1.74 5.29 1.53 5.59L1.53 5.59L1.53 5.59Q1.33 5.89 1.33 6.21L1.33 6.21L1.33 6.21Q1.33 6.51 1.54 6.76L1.54 6.76L1.54 6.76Q1.75 7.01 2.11 7.24L2.11 7.24L2.11 7.24Q2.47 7.46 2.95 7.68L2.95 7.68L2.95 7.68Q3.42 7.90 3.94 8.12L3.94 8.12L3.94 8.12Q4.44 8.34 4.94 8.59L4.94 8.59L4.94 8.59Q5.43 8.85 5.82 9.17L5.82 9.17L5.82 9.17Q6.21 9.50 6.44 9.91L6.44 9.91L6.44 9.91Q6.67 10.32 6.67 10.86L6.67 10.86L6.67 10.86Q6.67 11.43 6.46 11.96L6.46 11.96L6.46 11.96Q6.25 12.48 5.86 12.88L5.86 12.88L5.86 12.88Q5.47 13.28 4.91 13.51L4.91 13.51L4.91 13.51Q4.35 13.75 3.64 13.75L3.64 13.75L3.64 13.75Q3.01 13.75 2.45 13.55L2.45 13.55L2.45 13.55Q1.89 13.34 1.47 13.02L1.47 13.02L1.47 13.02Q1.05 12.69 0.81 12.29L0.81 12.29L0.81 12.29Q0.56 11.89 0.56 11.51L0.56 11.51L0.56 11.51Q0.56 11.10 0.75 10.81L0.75 10.81L0.75 10.81Q0.93 10.53 1.20 10.36L1.20 10.36L1.20 10.36Q1.48 10.19 1.77 10.12L1.77 10.12L1.77 10.12Q2.06 10.05 2.30 10.09ZM12.69 6.48L12.69 6.48L12.69 6.48Q12.54 6.45 12.28 6.43L12.28 6.43L12.28 6.43Q12.03 6.40 11.77 6.38L11.77 6.38L11.77 6.38Q11.47 6.37 11.13 6.37L11.13 6.37L11.13 6.37Q10.79 6.34 10.27 6.36L10.27 6.36L10.27 6.36Q9.76 6.38 9.20 6.38L9.20 6.38L9.20 6.38Q9.19 6.74 9.15 7.11L9.15 7.11L9.15 7.11Q9.12 7.48 9.09 7.83L9.09 7.83L9.09 7.83Q9.02 8.49 8.98 9.17L8.98 9.17L8.98 9.17Q8.93 9.86 8.93 10.47L8.93 10.47L8.93 10.47Q8.93 11.09 9.00 11.59L9.00 11.59L9.00 11.59Q9.08 12.09 9.28 12.37L9.28 12.37L9.28 12.37Q9.12 12.50 8.93 12.56L8.93 12.56L8.93 12.56Q8.74 12.62 8.59 12.65L8.59 12.65L8.59 12.65Q8.41 12.69 8.23 12.69L8.23 12.69L8.23 12.69Q8.07 12.69 7.96 12.58L7.96 12.58L7.96 12.58Q7.85 12.47 7.83 12.20L7.83 12.20L7.83 12.20Q7.81 11.73 7.83 11.26L7.83 11.26L7.83 11.26Q7.85 10.79 7.88 10.27L7.88 10.27L7.88 10.27Q7.92 9.75 7.96 9.15L7.96 9.15L7.96 9.15Q8.00 8.56 8.04 7.85L8.04 7.85L8.04 7.85Q8.08 7.11 8.08 6.41L8.08 6.41L8.08 6.41Q7.56 6.43 7.21 6.43L7.21 6.43L7.21 6.43Q6.85 6.43 6.81 6.41L6.81 6.41L6.81 6.41Q6.77 6.38 6.71 6.29L6.71 6.29L6.71 6.29Q6.66 6.21 6.57 6.04L6.57 6.04L6.57 6.04Q6.48 5.88 6.34 5.58L6.34 5.58L6.34 5.58Q6.60 5.58 6.91 5.58L6.91 5.58L6.91 5.58Q7.22 5.58 7.48 5.56L7.48 5.56L7.48 5.56Q7.78 5.55 8.08 5.54L8.08 5.54L8.08 5.54Q8.07 5.32 8.07 5.07L8.07 5.07L8.07 5.07Q8.05 4.88 8.05 4.64L8.05 4.64L8.05 4.64Q8.05 4.40 8.04 4.20L8.04 4.20L8.04 4.20Q8.04 4.12 8.24 4.00L8.24 4.00L8.24 4.00Q8.44 3.88 8.67 3.79L8.67 3.79L8.67 3.79Q8.90 3.69 9.10 3.66L9.10 3.66L9.10 3.66Q9.30 3.64 9.30 3.76L9.30 3.76L9.30 3.76Q9.30 3.88 9.29 4.35L9.29 4.35L9.29 4.35Q9.28 4.83 9.26 5.50L9.26 5.50L9.26 5.50Q9.39 5.50 9.46 5.48L9.46 5.48L9.46 5.48Q10.19 5.46 10.63 5.42L10.63 5.42L10.63 5.42Q11.07 5.39 11.36 5.41L11.36 5.41L11.36 5.41Q11.65 5.44 11.87 5.55L11.87 5.55L11.87 5.55Q12.09 5.66 12.36 5.91L12.36 5.91L12.36 5.91Q12.46 5.99 12.52 6.08L12.52 6.08L12.52 6.08Q12.59 6.17 12.64 6.27L12.64 6.27L12.64 6.27Q12.69 6.37 12.69 6.48ZM14.16 10.21L14.16 10.21L14.16 10.21Q14.14 10.75 13.98 11.20L13.98 11.20L13.98 11.20Q13.82 11.65 13.55 11.98L13.55 11.98L13.55 11.98Q13.28 12.32 12.90 12.51L12.90 12.51L12.90 12.51Q12.52 12.70 12.07 12.71L12.07 12.71L12.07 12.71Q11.68 12.73 11.33 12.52L11.33 12.52L11.33 12.52Q10.98 12.32 10.72 11.95L10.72 11.95L10.72 11.95Q10.46 11.58 10.33 11.07L10.33 11.07L10.33 11.07Q10.20 10.55 10.25 9.95L10.25 9.95L10.25 9.95Q10.29 9.26 10.51 8.76L10.51 8.76L10.51 8.76Q10.73 8.26 10.98 7.93L10.98 7.93L10.98 7.93Q11.22 7.60 11.44 7.44L11.44 7.44L11.44 7.44Q11.65 7.29 11.70 7.26L11.70 7.26L11.70 7.26Q11.80 7.22 11.88 7.24L11.88 7.24L11.88 7.24Q11.96 7.26 12.06 7.29L12.06 7.29L12.06 7.29Q12.09 7.30 12.11 7.36L12.11 7.36L12.11 7.36Q12.17 7.45 12.18 7.71L12.18 7.71L12.18 7.71Q12.25 7.56 12.36 7.46L12.36 7.46L12.36 7.46Q12.47 7.37 12.58 7.33L12.58 7.33L12.58 7.33Q12.71 7.27 12.85 7.26L12.85 7.26L12.85 7.26Q12.95 7.25 13.19 7.41L13.19 7.41L13.19 7.41Q13.43 7.57 13.65 7.93L13.65 7.93L13.65 7.93Q13.88 8.29 14.04 8.85L14.04 8.85L14.04 8.85Q14.21 9.42 14.16 10.21ZM13.23 10.05L13.23 10.05L13.23 10.05Q13.25 9.72 13.21 9.39L13.21 9.39L13.21 9.39Q13.18 9.05 13.10 8.77L13.10 8.77L13.10 8.77Q13.03 8.49 12.92 8.32L12.92 8.32L12.92 8.32Q12.81 8.15 12.70 8.15L12.70 8.15L12.70 8.15Q12.58 8.18 12.43 8.27L12.43 8.27L12.43 8.27Q12.30 8.35 12.15 8.53L12.15 8.53L12.15 8.53Q12.00 8.71 11.87 9.04L11.87 9.04L11.87 9.04Q11.85 9.00 11.84 8.89L11.84 8.89L11.84 8.89Q11.83 8.79 11.82 8.63L11.82 8.63L11.82 8.63Q11.81 8.48 11.84 8.20L11.84 8.20L11.84 8.20Q11.65 8.44 11.55 8.75L11.55 8.75L11.55 8.75Q11.44 9.06 11.39 9.35L11.39 9.35L11.39 9.35Q11.33 9.69 11.31 10.04L11.31 10.04L11.31 10.04Q11.29 10.40 11.34 10.76L11.34 10.76L11.34 10.76Q11.39 11.12 11.50 11.39L11.50 11.39L11.50 11.39Q11.62 11.66 11.79 11.83L11.79 11.83L11.79 11.83Q11.95 11.99 12.18 11.98L12.18 11.98L12.18 11.98Q12.41 11.96 12.59 11.79L12.59 11.79L12.59 11.79Q12.77 11.61 12.91 11.33L12.91 11.33L12.91 11.33Q13.04 11.06 13.13 10.72L13.13 10.72L13.13 10.72Q13.21 10.38 13.23 10.05ZM18.61 8.37L18.61 8.37L18.61 8.37Q18.61 8.56 18.50 8.76L18.50 8.76L18.50 8.76Q18.40 8.96 18.25 9.13L18.25 9.13L18.25 9.13Q18.10 9.31 17.92 9.44L17.92 9.44L17.92 9.44Q17.73 9.57 17.57 9.60L17.57 9.60L17.57 9.60Q17.68 9.17 17.64 8.94L17.64 8.94L17.64 8.94Q17.60 8.71 17.50 8.60L17.50 8.60L17.50 8.60Q17.39 8.48 17.23 8.46L17.23 8.46L17.23 8.46Q16.98 8.46 16.75 8.74L16.75 8.74L16.75 8.74Q16.53 9.02 16.37 9.43L16.37 9.43L16.37 9.43Q16.20 9.83 16.11 10.29L16.11 10.29L16.11 10.29Q16.01 10.75 16.01 11.12L16.01 11.12L16.01 11.12Q16.00 11.38 16.02 11.62L16.02 11.62L16.02 11.62Q16.04 11.83 16.07 12.04L16.07 12.04L16.07 12.04Q16.11 12.26 16.17 12.39L16.17 12.39L16.17 12.39Q16.09 12.46 15.91 12.55L15.91 12.55L15.91 12.55Q15.72 12.65 15.52 12.67L15.52 12.67L15.52 12.67Q15.33 12.70 15.17 12.61L15.17 12.61L15.17 12.61Q15.01 12.51 15.00 12.20L15.00 12.20L15.00 12.20Q14.97 11.89 14.96 11.52L14.96 11.52L14.96 11.52Q14.96 11.14 14.96 10.77L14.96 10.77L14.96 10.77Q14.97 10.39 14.98 10.02L14.98 10.02L14.98 10.02Q15.00 9.65 15.03 9.34L15.03 9.34L15.03 9.34Q15.05 8.74 15.05 8.41L15.05 8.41L15.05 8.41Q15.05 8.08 15.04 7.78L15.04 7.78L15.04 7.78Q15.04 7.72 15.22 7.62L15.22 7.62L15.22 7.62Q15.41 7.52 15.63 7.44L15.63 7.44L15.63 7.44Q15.86 7.36 16.05 7.34L16.05 7.34L16.05 7.34Q16.24 7.33 16.24 7.42L16.24 7.42L16.24 7.42Q16.24 7.57 16.21 8.02L16.21 8.02L16.21 8.02Q16.17 8.46 16.12 8.94L16.12 8.94L16.12 8.94Q16.21 8.68 16.37 8.38L16.37 8.38L16.37 8.38Q16.53 8.08 16.73 7.82L16.73 7.82L16.73 7.82Q16.94 7.56 17.20 7.39L17.20 7.39L17.20 7.39Q17.46 7.22 17.77 7.22L17.77 7.22L17.77 7.22Q18.02 7.22 18.18 7.37L18.18 7.37L18.18 7.37Q18.33 7.52 18.43 7.71L18.43 7.71L18.43 7.71Q18.53 7.90 18.57 8.09L18.57 8.09L18.57 8.09Q18.61 8.29 18.61 8.37ZM20.88 12.71L20.88 12.71L20.88 12.71Q19.92 12.71 19.40 12.07L19.40 12.07L19.40 12.07Q18.88 11.43 18.88 10.39L18.88 10.39L18.88 10.39Q18.88 9.67 19.09 9.03L19.09 9.03L19.09 9.03Q19.30 8.39 19.66 7.93L19.66 7.93L19.66 7.93Q20.02 7.46 20.49 7.20L20.49 7.20L20.49 7.20Q20.96 6.93 21.48 6.93L21.48 6.93L21.48 6.93Q21.98 6.93 22.34 7.29L22.34 7.29L22.34 7.29Q22.70 7.66 22.70 8.33L22.70 8.33L22.70 8.33Q22.70 8.76 22.50 9.19L22.50 9.19L22.50 9.19Q22.31 9.63 22.00 9.96L22.00 9.96L22.00 9.96Q21.70 10.29 21.33 10.50L21.33 10.50L21.33 10.50Q20.96 10.71 20.62 10.71L20.62 10.71L20.62 10.71Q20.40 10.71 20.25 10.65L20.25 10.65L20.25 10.65Q20.10 10.60 19.97 10.49L19.97 10.49L19.97 10.49Q20.02 11.27 20.32 11.57L20.32 11.57L20.32 11.57Q20.62 11.88 21.10 11.88L21.10 11.88L21.10 11.88Q21.42 11.88 21.68 11.74L21.68 11.74L21.68 11.74Q21.93 11.61 22.11 11.43L22.11 11.43L22.11 11.43Q22.29 11.25 22.39 11.07L22.39 11.07L22.39 11.07Q22.50 10.88 22.54 10.79L22.54 10.79L22.54 10.79Q22.59 10.71 22.69 10.71L22.69 10.71L22.69 10.71Q22.79 10.71 22.79 10.87L22.79 10.87L22.79 10.87Q22.79 11.02 22.69 11.33L22.69 11.33L22.69 11.33Q22.59 11.63 22.35 11.94L22.35 11.94L22.35 11.94Q22.12 12.25 21.76 12.48L21.76 12.48L21.76 12.48Q21.40 12.71 20.88 12.71ZM21.51 7.52L21.51 7.52L21.51 7.52Q21.42 7.52 21.20 7.69L21.20 7.69L21.20 7.69Q20.97 7.86 20.72 8.19L20.72 8.19L20.72 8.19Q20.47 8.52 20.25 8.98L20.25 8.98L20.25 8.98Q20.04 9.43 19.99 10.01L19.99 10.01L19.99 10.01Q20.81 9.82 21.29 9.41L21.29 9.41L21.29 9.41Q21.77 9.00 21.77 8.20L21.77 8.20L21.77 8.20Q21.77 7.81 21.67 7.66L21.67 7.66L21.67 7.66Q21.57 7.52 21.51 7.52ZM24.14 9.60L24.14 9.60L24.14 9.60Q23.98 9.65 23.81 9.58L23.81 9.58L23.81 9.58Q23.64 9.50 23.50 9.34L23.50 9.34L23.50 9.34Q23.37 9.17 23.29 8.96L23.29 8.96L23.29 8.96Q23.21 8.74 23.21 8.49L23.21 8.49L23.21 8.49Q23.39 8.46 23.60 8.43L23.60 8.43L23.60 8.43Q23.80 8.39 23.98 8.37L23.98 8.37L23.98 8.37Q24.19 8.34 24.38 8.31L24.38 8.31L24.38 8.31Q24.39 7.52 24.41 6.80L24.41 6.80L24.41 6.80Q24.43 6.08 24.45 5.52L24.45 5.52L24.45 5.52Q24.47 4.95 24.49 4.56L24.49 4.56L24.49 4.56Q24.51 4.17 24.53 4.03L24.53 4.03L24.53 4.03Q24.53 3.96 24.60 3.90L24.60 3.90L24.60 3.90Q24.71 3.81 24.92 3.66L24.92 3.66L24.92 3.66Q25.13 3.51 25.40 3.39L25.40 3.39L25.40 3.39Q25.63 3.29 25.71 3.45L25.71 3.45L25.71 3.45Q25.79 3.61 25.79 4.05L25.79 4.05L25.79 4.05Q25.76 4.66 25.73 5.70L25.73 5.70L25.73 5.70Q25.70 6.74 25.68 8.15L25.68 8.15L25.68 8.15Q25.89 8.12 26.10 8.11L26.10 8.11L26.10 8.11Q26.30 8.09 26.54 8.08L26.54 8.08L26.54 8.08Q27.17 8.05 27.76 8.01L27.76 8.01L27.76 8.01Q28.36 7.97 28.81 8.01L28.81 8.01L28.81 8.01Q28.88 6.06 28.85 5.08L28.85 5.08L28.85 5.08Q28.82 4.10 28.82 3.92L28.82 3.92L28.82 3.92Q28.82 3.84 29.00 3.73L29.00 3.73L29.00 3.73Q29.18 3.62 29.39 3.53L29.39 3.53L29.39 3.53Q29.60 3.45 29.78 3.41L29.78 3.41L29.78 3.41Q29.96 3.38 29.97 3.43L29.97 3.43L29.97 3.43Q29.98 3.53 29.98 3.91L29.98 3.91L29.98 3.91Q29.97 4.29 29.96 4.98L29.96 4.98L29.96 4.98Q29.96 5.67 29.96 6.70L29.96 6.70L29.96 6.70Q29.97 7.72 30.01 9.09L30.01 9.09L30.01 9.09Q29.98 9.72 29.98 10.40L29.98 10.40L29.98 10.40Q29.98 10.99 30.01 11.72L30.01 11.72L30.01 11.72Q30.04 12.44 30.13 13.18L30.13 13.18L30.13 13.18Q29.96 13.33 29.75 13.41L29.75 13.41L29.75 13.41Q29.54 13.49 29.35 13.55L29.35 13.55L29.35 13.55Q29.13 13.60 28.92 13.63L28.92 13.63L28.92 13.63Q28.79 13.64 28.72 13.58L28.72 13.58L28.72 13.58Q28.64 13.52 28.62 13.43L28.62 13.43L28.62 13.43Q28.59 13.34 28.58 13.25L28.58 13.25L28.58 13.25Q28.57 13.15 28.57 13.07L28.57 13.07L28.57 13.07Q28.57 12.89 28.58 12.74L28.58 12.74L28.58 12.74Q28.59 12.58 28.60 12.48L28.60 12.48L28.60 12.48Q28.63 11.89 28.67 11.06L28.67 11.06L28.67 11.06Q28.71 10.23 28.75 9.20L28.75 9.20L28.75 9.20Q28.66 9.19 28.57 9.18L28.57 9.18L28.57 9.18Q28.49 9.17 28.38 9.16L28.38 9.16L28.38 9.16Q27.77 9.12 27.05 9.16L27.05 9.16L27.05 9.16Q26.33 9.20 25.65 9.30L25.65 9.30L25.65 9.30Q25.63 9.97 25.65 10.56L25.65 10.56L25.65 10.56Q25.66 11.16 25.68 11.64L25.68 11.64L25.68 11.64Q25.70 12.13 25.73 12.48L25.73 12.48L25.73 12.48Q25.76 12.82 25.79 12.99L25.79 12.99L25.79 12.99Q25.80 13.13 25.74 13.18L25.74 13.18L25.74 13.18Q25.69 13.25 25.59 13.36L25.59 13.36L25.59 13.36Q25.48 13.47 25.33 13.57L25.33 13.57L25.33 13.57Q25.17 13.67 24.95 13.75L24.95 13.75L24.95 13.75Q24.73 13.82 24.45 13.82L24.45 13.82L24.45 13.82Q24.31 13.82 24.31 13.70L24.31 13.70L24.31 13.70Q24.31 13.52 24.32 13.14L24.32 13.14L24.32 13.14Q24.32 12.76 24.33 12.21L24.33 12.21L24.33 12.21Q24.34 11.66 24.34 10.99L24.34 10.99L24.34 10.99Q24.35 10.31 24.36 9.54L24.36 9.54L24.36 9.54Q24.29 9.56 24.25 9.57L24.25 9.57L24.25 9.57Q24.20 9.58 24.14 9.60ZM35.04 10.21L35.04 10.21L35.04 10.21Q35.01 10.75 34.86 11.20L34.86 11.20L34.86 11.20Q34.70 11.65 34.43 11.98L34.43 11.98L34.43 11.98Q34.15 12.32 33.78 12.51L33.78 12.51L33.78 12.51Q33.40 12.70 32.95 12.71L32.95 12.71L32.95 12.71Q32.55 12.73 32.20 12.52L32.20 12.52L32.20 12.52Q31.86 12.32 31.60 11.95L31.60 11.95L31.60 11.95Q31.34 11.58 31.21 11.07L31.21 11.07L31.21 11.07Q31.08 10.55 31.13 9.95L31.13 9.95L31.13 9.95Q31.17 9.26 31.39 8.76L31.39 8.76L31.39 8.76Q31.61 8.26 31.86 7.93L31.86 7.93L31.86 7.93Q32.10 7.60 32.31 7.44L32.31 7.44L32.31 7.44Q32.53 7.29 32.58 7.26L32.58 7.26L32.58 7.26Q32.68 7.22 32.76 7.24L32.76 7.24L32.76 7.24Q32.84 7.26 32.94 7.29L32.94 7.29L32.94 7.29Q32.96 7.30 32.99 7.36L32.99 7.36L32.99 7.36Q33.04 7.45 33.06 7.71L33.06 7.71L33.06 7.71Q33.13 7.56 33.24 7.46L33.24 7.46L33.24 7.46Q33.35 7.37 33.46 7.33L33.46 7.33L33.46 7.33Q33.59 7.27 33.73 7.26L33.73 7.26L33.73 7.26Q33.82 7.25 34.06 7.41L34.06 7.41L34.06 7.41Q34.30 7.57 34.53 7.93L34.53 7.93L34.53 7.93Q34.75 8.29 34.92 8.85L34.92 8.85L34.92 8.85Q35.08 9.42 35.04 10.21ZM34.11 10.05L34.11 10.05L34.11 10.05Q34.13 9.72 34.09 9.39L34.09 9.39L34.09 9.39Q34.06 9.05 33.98 8.77L33.98 8.77L33.98 8.77Q33.91 8.49 33.80 8.32L33.80 8.32L33.80 8.32Q33.69 8.15 33.58 8.15L33.58 8.15L33.58 8.15Q33.46 8.18 33.30 8.27L33.30 8.27L33.30 8.27Q33.18 8.35 33.03 8.53L33.03 8.53L33.03 8.53Q32.88 8.71 32.74 9.04L32.74 9.04L32.74 9.04Q32.73 9.00 32.72 8.89L32.72 8.89L32.72 8.89Q32.70 8.79 32.70 8.63L32.70 8.63L32.70 8.63Q32.69 8.48 32.72 8.20L32.72 8.20L32.72 8.20Q32.53 8.44 32.42 8.75L32.42 8.75L32.42 8.75Q32.32 9.06 32.27 9.35L32.27 9.35L32.27 9.35Q32.21 9.69 32.18 10.04L32.18 10.04L32.18 10.04Q32.17 10.40 32.22 10.76L32.22 10.76L32.22 10.76Q32.27 11.12 32.38 11.39L32.38 11.39L32.38 11.39Q32.50 11.66 32.66 11.83L32.66 11.83L32.66 11.83Q32.83 11.99 33.06 11.98L33.06 11.98L33.06 11.98Q33.29 11.96 33.47 11.79L33.47 11.79L33.47 11.79Q33.65 11.61 33.78 11.33L33.78 11.33L33.78 11.33Q33.92 11.06 34.00 10.72L34.00 10.72L34.00 10.72Q34.08 10.38 34.11 10.05ZM39.55 10.21L39.55 10.21L39.55 10.21Q39.53 10.75 39.37 11.20L39.37 11.20L39.37 11.20Q39.21 11.65 38.94 11.98L38.94 11.98L38.94 11.98Q38.66 12.32 38.29 12.51L38.29 12.51L38.29 12.51Q37.91 12.70 37.46 12.71L37.46 12.71L37.46 12.71Q37.06 12.73 36.72 12.52L36.72 12.52L36.72 12.52Q36.37 12.32 36.11 11.95L36.11 11.95L36.11 11.95Q35.85 11.58 35.72 11.07L35.72 11.07L35.72 11.07Q35.59 10.55 35.64 9.95L35.64 9.95L35.64 9.95Q35.68 9.26 35.90 8.76L35.90 8.76L35.90 8.76Q36.12 8.26 36.37 7.93L36.37 7.93L36.37 7.93Q36.61 7.60 36.83 7.44L36.83 7.44L36.83 7.44Q37.04 7.29 37.09 7.26L37.09 7.26L37.09 7.26Q37.19 7.22 37.27 7.24L37.27 7.24L37.27 7.24Q37.35 7.26 37.45 7.29L37.45 7.29L37.45 7.29Q37.47 7.30 37.50 7.36L37.50 7.36L37.50 7.36Q37.56 7.45 37.57 7.71L37.57 7.71L37.57 7.71Q37.64 7.56 37.75 7.46L37.75 7.46L37.75 7.46Q37.86 7.37 37.97 7.33L37.97 7.33L37.97 7.33Q38.10 7.27 38.24 7.26L38.24 7.26L38.24 7.26Q38.34 7.25 38.58 7.41L38.58 7.41L38.58 7.41Q38.81 7.57 39.04 7.93L39.04 7.93L39.04 7.93Q39.27 8.29 39.43 8.85L39.43 8.85L39.43 8.85Q39.59 9.42 39.55 10.21ZM38.62 10.05L38.62 10.05L38.62 10.05Q38.64 9.72 38.60 9.39L38.60 9.39L38.60 9.39Q38.57 9.05 38.49 8.77L38.49 8.77L38.49 8.77Q38.42 8.49 38.31 8.32L38.31 8.32L38.31 8.32Q38.20 8.15 38.09 8.15L38.09 8.15L38.09 8.15Q37.97 8.18 37.82 8.27L37.82 8.27L37.82 8.27Q37.69 8.35 37.54 8.53L37.54 8.53L37.54 8.53Q37.39 8.71 37.26 9.04L37.26 9.04L37.26 9.04Q37.24 9.00 37.23 8.89L37.23 8.89L37.23 8.89Q37.21 8.79 37.21 8.63L37.21 8.63L37.21 8.63Q37.20 8.48 37.23 8.20L37.23 8.20L37.23 8.20Q37.04 8.44 36.93 8.75L36.93 8.75L36.93 8.75Q36.83 9.06 36.78 9.35L36.78 9.35L36.78 9.35Q36.72 9.69 36.70 10.04L36.70 10.04L36.70 10.04Q36.68 10.40 36.73 10.76L36.73 10.76L36.73 10.76Q36.78 11.12 36.89 11.39L36.89 11.39L36.89 11.39Q37.01 11.66 37.17 11.83L37.17 11.83L37.17 11.83Q37.34 11.99 37.57 11.98L37.57 11.98L37.57 11.98Q37.80 11.96 37.98 11.79L37.98 11.79L37.98 11.79Q38.16 11.61 38.29 11.33L38.29 11.33L38.29 11.33Q38.43 11.06 38.51 10.72L38.51 10.72L38.51 10.72Q38.60 10.38 38.62 10.05ZM43.05 9.30L43.05 9.30L43.05 9.30Q43.34 9.42 43.60 9.69L43.60 9.69L43.60 9.69Q43.86 9.95 43.93 10.49L43.93 10.49L43.93 10.49Q43.98 10.95 44.08 11.32L44.08 11.32L44.08 11.32Q44.17 11.69 44.35 11.98L44.35 11.98L44.35 11.98Q44.53 12.28 44.82 12.50L44.82 12.50L44.82 12.50Q45.12 12.73 45.58 12.89L45.58 12.89L45.58 12.89Q45.46 13.00 45.29 13.07L45.29 13.07L45.29 13.07Q45.12 13.14 44.97 13.17L44.97 13.17L44.97 13.17Q44.79 13.22 44.60 13.22L44.60 13.22L44.60 13.22Q44.15 13.26 43.86 13.10L43.86 13.10L43.86 13.10Q43.57 12.95 43.41 12.65L43.41 12.65L43.41 12.65Q43.24 12.35 43.16 11.95L43.16 11.95L43.16 11.95Q43.08 11.55 43.04 11.13L43.04 11.13L43.04 11.13Q43.03 10.95 43.00 10.76L43.00 10.76L43.00 10.76Q42.97 10.57 42.90 10.39L42.90 10.39L42.90 10.39Q42.83 10.21 42.72 10.06L42.72 10.06L42.72 10.06Q42.60 9.91 42.42 9.83L42.42 9.83L42.42 9.83Q42.12 10.06 41.87 10.23L41.87 10.23L41.87 10.23Q41.62 10.40 41.43 10.51L41.43 10.51L41.43 10.51Q41.44 11.25 41.50 11.73L41.50 11.73L41.50 11.73Q41.56 12.21 41.67 12.37L41.67 12.37L41.67 12.37Q41.58 12.44 41.48 12.49L41.48 12.49L41.48 12.49Q41.38 12.54 41.32 12.56L41.32 12.56L41.32 12.56Q41.22 12.61 41.14 12.62L41.14 12.62L41.14 12.62Q40.87 12.70 40.65 12.60L40.65 12.60L40.65 12.60Q40.44 12.50 40.43 12.06L40.43 12.06L40.35 4.07L40.35 4.07Q40.35 3.96 40.56 3.85L40.56 3.85L40.56 3.85Q40.77 3.73 41.03 3.66L41.03 3.66L41.03 3.66Q41.29 3.60 41.50 3.60L41.50 3.60L41.50 3.60Q41.71 3.60 41.70 3.72L41.70 3.72L41.70 3.72Q41.66 4.66 41.62 5.50L41.62 5.50L41.62 5.50Q41.58 6.33 41.55 6.97L41.55 6.97L41.55 6.97Q41.51 7.72 41.48 8.34L41.48 8.34L41.48 8.34Q41.45 8.71 41.45 9.05L41.45 9.05L41.45 9.05Q41.44 9.39 41.43 9.71L41.43 9.71L41.43 9.71Q41.69 9.50 41.97 9.26L41.97 9.26L41.97 9.26Q42.26 9.01 42.52 8.71L42.52 8.71L42.52 8.71Q42.78 8.41 42.96 8.06L42.96 8.06L42.96 8.06Q43.13 7.71 43.16 7.31L43.16 7.31L43.16 7.31Q43.31 7.21 43.47 7.13L43.47 7.13L43.47 7.13Q43.63 7.05 43.75 7.01L43.75 7.01L43.75 7.01Q43.90 6.96 44.02 6.96L44.02 6.96L44.02 6.96Q44.34 6.95 44.39 7.10L44.39 7.10L44.39 7.10Q44.43 7.21 44.39 7.42L44.39 7.42L44.39 7.42Q44.34 7.63 44.18 7.92L44.18 7.92L44.18 7.92Q44.02 8.22 43.75 8.57L43.75 8.57L43.75 8.57Q43.48 8.91 43.05 9.30Z"></path></g><defs data-v-fde0c5aa=""><linearGradient data-v-fde0c5aa="" gradientTransform="rotate(25)" id="3e767556-eacf-4a01-9e8b-9c6b8f7145fe" x1="0%" y1="0%" x2="100%" y2="0%"><stop data-v-fde0c5aa="" offset="0%" stop-color="#30092A" stop-opacity="1"></stop><stop data-v-fde0c5aa="" offset="100%" stop-color="#CB3C61" stop-opacity="1"></stop></linearGradient></defs><g data-v-fde0c5aa="" id="24a47b3e-5299-4f9e-a8b6-8ebf445944ef" stroke="none" fill="url(#3e767556-eacf-4a01-9e8b-9c6b8f7145fe)" transform="matrix(0.7863779908231933,0,0,0.7863779908231933,40,110.70485282750542)"><circle cx="35.097" cy="8.635" r="8.635"></circle><path d="M55.788 83.153l7.387-.802-3.833-14.719-4.368.479c-.891-4.368-3.577-7.554-6.496-7.644l-2.63-8.936v2.674c0 2.329-.735 4.535-2.084 6.373-1.549.412-3.02 1.66-4.123 3.454l.056 2.373c.769-1.972 1.939-3.51 3.242-4.29l.011.067c.178.579.535 1.059.992 1.393-.579 1.081-.981 2.384-1.17 3.822l1.092.167c.156-1.348.546-2.552 1.07-3.521a3.01 3.01 0 0 0 1.571-.033 2.918 2.918 0 0 0 1.259-.747c1.036 1.46 1.604 3.71 1.482 6.228l-9.504-1.415.078 3.22s.011.423.011.791l6.173 12.134 8.669 1.293.011-15.209-4.334-.646c.167-2.975-.591-5.66-1.95-7.354.1-.234.167-.479.189-.735 2.719.089 4.591 3.387 5.27 6.663l-2.384.256c0 .067.011.145.011.212l3.365.501.947.145v.958l-.01 12.848zM15.76 64.877c-.109.177-.217.355-.32.541l.983.497c.914-1.672 2.111-2.92 3.37-3.514-1.267.093-2.752 1.021-4.033 2.476zM25.512 63.644c.4 1.52.414 3.305.012 5.189-.012.481-.05.974-.117 1.476l-.255-.06-.02.069 3.039 1.536.858.434-.304.912-4.114 12.373 4.885 1.148 1.271-15.153-4.273-1.004c.37-2.658-.019-5.137-.982-6.92zM4.548 80.86l5.9 1.386-5.372-2.716zM24.356 86.658l-.098-.023-.331.995-.407 1.225-.174-.088-.253 7.561a3.554 3.554 0 0 0 7.103.237l.283-8.469-1.238-.291-4.885-1.147z"></path><path d="M30.774 84.769h5.805l-2.228-15.042h-4.39c-.334-3.61-1.939-6.585-4.089-7.777l1.17-3.989c.49 1.125 1.214 2.173 2.273 2.864l-.836 1.928c1.215 1.493 2.095 3.532 2.462 5.861h4.368l.045.301 4.301-7.432a7.777 7.777 0 0 0 1.426-1.137 8.676 8.676 0 0 0 2.54-6.139V27.354a8.554 8.554 0 0 0-.691-3.387l-.011.045c-1.337-3.153-4.401-5.37-7.978-5.37-4.802 0-8.691 3.978-8.691 8.88l.045 12.468-5.928 20.189c-2.574-.167-5.616 1.816-7.677 5.103l-3.91-1.984L0 75.71l22.875 11.565 4.791-14.429-3.911-1.983c.992-2.529 1.192-5.058.646-7.031a2.7 2.7 0 0 0 1.014-.858c1.916.635 3.231 4.735 3.432 6.752h-1.036l3.209.758.936.223-.078.958-1.104 13.104zm-8.019-14.404l-9.067-4.584c1.807-2.848 4.354-4.599 6.471-4.508a2.763 2.763 0 0 0 .698 1.858l-.589.278a4.371 4.371 0 0 0-.62.381c-.612.836-1.104 1.867-1.47 3.013l.982.497c.474-1.601 1.244-2.892 2.178-3.741.27.196.574.357.915.457.366.108.735.138 1.091.109.477 1.698.302 3.949-.589 6.24zM10.955 84.771h5.368l-5.187-1.219z"></path><path d="M37.621 72.648l-.031-1.292-1.487 2.576 1.582 10.676.025.17-.013.335.062-.007.115.779h-1.486l5.185 10.197a3.554 3.554 0 0 0 6.335-3.222L37.621 72.648z"></path></g><defs data-v-fde0c5aa=""><!----></defs><g data-v-fde0c5aa="" id="4d28cb60-0f5d-4f55-ba39-94cf4f907f5b" fill="#000000" transform="matrix(0.6991714806913791,0,0,0.6991714806913791,102.23895094079478,164.3630578112657)"><path d="M6.59 9.21L6.59 8.71L6.59 8.71Q6.59 8.23 6.41 7.87L6.41 7.87L6.41 7.87Q6.22 7.50 5.89 7.27L5.89 7.27L5.89 7.27Q5.57 7.03 5.15 6.90L5.15 6.90L5.15 6.90Q4.73 6.78 4.27 6.78L4.27 6.78L4.27 6.78Q3.86 6.78 3.50 6.88L3.50 6.88L3.50 6.88Q3.14 6.99 2.85 7.18L2.85 7.18L2.85 7.18Q2.56 7.38 2.39 7.66L2.39 7.66L2.39 7.66Q2.23 7.95 2.23 8.33L2.23 8.33L2.23 8.41L2.23 8.41Q2.23 8.82 2.39 9.11L2.39 9.11L2.39 9.11Q2.56 9.39 2.89 9.60L2.89 9.60L2.89 9.60Q3.22 9.80 3.71 9.93L3.71 9.93L3.71 9.93Q4.20 10.07 4.86 10.16L4.86 10.16L4.86 10.16Q6.40 10.40 7.13 11.07L7.13 11.07L7.13 11.07Q7.85 11.73 7.85 12.85L7.85 12.85L7.85 13.02L7.85 13.02Q7.85 13.65 7.64 14.17L7.64 14.17L7.64 14.17Q7.42 14.70 6.99 15.08L6.99 15.08L6.99 15.08Q6.57 15.46 5.94 15.67L5.94 15.67L5.94 15.67Q5.31 15.88 4.48 15.88L4.48 15.88L4.48 15.88Q3.54 15.88 2.82 15.60L2.82 15.60L2.82 15.60Q2.10 15.33 1.62 14.85L1.62 14.85L1.62 14.85Q1.13 14.36 0.88 13.71L0.88 13.71L0.88 13.71Q0.63 13.06 0.63 12.29L0.63 12.29L0.63 11.87L1.81 11.87L1.81 12.21L1.81 12.21Q1.81 13.50 2.51 14.14L2.51 14.14L2.51 14.14Q3.22 14.78 4.48 14.78L4.48 14.78L4.48 14.78Q5.57 14.78 6.13 14.30L6.13 14.30L6.13 14.30Q6.68 13.82 6.68 13.02L6.68 13.02L6.68 12.94L6.68 12.94Q6.68 12.17 6.11 11.76L6.11 11.76L6.11 11.76Q5.54 11.35 4.27 11.17L4.27 11.17L4.27 11.17Q3.53 11.07 2.93 10.87L2.93 10.87L2.93 10.87Q2.34 10.67 1.92 10.34L1.92 10.34L1.92 10.34Q1.50 10.01 1.27 9.55L1.27 9.55L1.27 9.55Q1.05 9.09 1.05 8.46L1.05 8.46L1.05 8.29L1.05 8.29Q1.05 7.71 1.29 7.24L1.29 7.24L1.29 7.24Q1.53 6.76 1.95 6.41L1.95 6.41L1.95 6.41Q2.38 6.06 2.98 5.87L2.98 5.87L2.98 5.87Q3.57 5.68 4.28 5.68L4.28 5.68L4.28 5.68Q5.11 5.68 5.76 5.92L5.76 5.92L5.76 5.92Q6.41 6.16 6.86 6.56L6.86 6.56L6.86 6.56Q7.31 6.96 7.54 7.50L7.54 7.50L7.54 7.50Q7.77 8.04 7.77 8.62L7.77 8.62L7.77 9.21L6.59 9.21ZM16.59 15.68L16.59 5.88L17.77 5.88L17.77 10.22L21.94 10.22L21.94 5.88L23.11 5.88L23.11 15.68L21.94 15.68L21.94 11.31L17.77 11.31L17.77 15.68L16.59 15.68ZM31.98 11.87L31.98 9.69L31.98 9.69Q31.98 7.78 32.89 6.73L32.89 6.73L32.89 6.73Q33.80 5.68 35.42 5.68L35.42 5.68L35.42 5.68Q37.04 5.68 37.95 6.73L37.95 6.73L37.95 6.73Q38.86 7.78 38.86 9.69L38.86 9.69L38.86 11.87L38.86 11.87Q38.86 13.83 37.95 14.85L37.95 14.85L37.95 14.85Q37.04 15.88 35.42 15.88L35.42 15.88L35.42 15.88Q33.80 15.88 32.89 14.85L32.89 14.85L32.89 14.85Q31.98 13.83 31.98 11.87L31.98 11.87ZM35.42 14.78L35.42 14.78L35.42 14.78Q36.55 14.78 37.12 14.01L37.12 14.01L37.12 14.01Q37.69 13.23 37.69 11.79L37.69 11.79L37.69 9.77L37.69 9.77Q37.69 8.43 37.12 7.60L37.12 7.60L37.12 7.60Q36.55 6.78 35.42 6.78L35.42 6.78L35.42 6.78Q34.29 6.78 33.72 7.60L33.72 7.60L33.72 7.60Q33.15 8.43 33.15 9.77L33.15 9.77L33.15 11.79L33.15 11.79Q33.15 13.23 33.72 14.01L33.72 14.01L33.72 14.01Q34.29 14.78 35.42 14.78ZM51.39 11.65L49.07 11.65L49.07 15.68L47.89 15.68L47.89 5.88L51.39 5.88L51.39 5.88Q52.15 5.88 52.71 6.10L52.71 6.10L52.71 6.10Q53.27 6.31 53.64 6.68L53.64 6.68L53.64 6.68Q54.01 7.04 54.20 7.53L54.20 7.53L54.20 7.53Q54.39 8.01 54.39 8.54L54.39 8.54L54.39 8.96L54.39 8.96Q54.39 9.49 54.20 9.98L54.20 9.98L54.20 9.98Q54.01 10.47 53.63 10.84L53.63 10.84L53.63 10.84Q53.26 11.21 52.70 11.43L52.70 11.43L52.70 11.43Q52.14 11.65 51.39 11.65L51.39 11.65ZM49.07 6.97L49.07 10.56L51.25 10.56L51.25 10.56Q53.21 10.56 53.21 8.88L53.21 8.88L53.21 8.62L53.21 8.62Q53.21 7.88 52.73 7.43L52.73 7.43L52.73 7.43Q52.25 6.97 51.25 6.97L51.25 6.97L49.07 6.97ZM66.96 11.65L64.64 11.65L64.64 15.68L63.46 15.68L63.46 5.88L66.96 5.88L66.96 5.88Q67.72 5.88 68.28 6.10L68.28 6.10L68.28 6.10Q68.84 6.31 69.21 6.68L69.21 6.68L69.21 6.68Q69.58 7.04 69.77 7.53L69.77 7.53L69.77 7.53Q69.96 8.01 69.96 8.54L69.96 8.54L69.96 8.96L69.96 8.96Q69.96 9.49 69.77 9.98L69.77 9.98L69.77 9.98Q69.58 10.47 69.20 10.84L69.20 10.84L69.20 10.84Q68.82 11.21 68.26 11.43L68.26 11.43L68.26 11.43Q67.70 11.65 66.96 11.65L66.96 11.65ZM64.64 6.97L64.64 10.56L66.82 10.56L66.82 10.56Q68.78 10.56 68.78 8.88L68.78 8.88L68.78 8.62L68.78 8.62Q68.78 7.88 68.30 7.43L68.30 7.43L68.30 7.43Q67.82 6.97 66.82 6.97L66.82 6.97L64.64 6.97ZM79.02 6.97L79.02 5.88L85.23 5.88L85.23 6.97L82.71 6.97L82.71 14.59L85.23 14.59L85.23 15.68L79.02 15.68L79.02 14.59L81.54 14.59L81.54 6.97L79.02 6.97ZM96.78 5.88L99.61 15.18L99.78 15.18L99.78 5.88L100.95 5.88L100.95 15.68L98.60 15.68L95.77 6.38L95.61 6.38L95.61 15.68L94.43 15.68L94.43 5.88L96.78 5.88ZM112.32 12.07L112.32 10.98L116.69 10.98L116.69 15.68L115.60 15.68L115.60 14.50L115.43 14.50L115.43 14.50Q115.19 15.12 114.59 15.50L114.59 15.50L114.59 15.50Q113.99 15.88 113.19 15.88L113.19 15.88L113.19 15.88Q111.61 15.88 110.70 14.85L110.70 14.85L110.70 14.85Q109.80 13.83 109.80 11.87L109.80 11.87L109.80 9.69L109.80 9.69Q109.80 7.78 110.71 6.73L110.71 6.73L110.71 6.73Q111.62 5.68 113.25 5.68L113.25 5.68L113.25 5.68Q114.09 5.68 114.73 5.96L114.73 5.96L114.73 5.96Q115.37 6.23 115.81 6.71L115.81 6.71L115.81 6.71Q116.24 7.20 116.47 7.85L116.47 7.85L116.47 7.85Q116.69 8.50 116.69 9.24L116.69 9.24L116.69 9.41L115.51 9.41L115.51 9.24L115.51 9.24Q115.51 8.76 115.38 8.32L115.38 8.32L115.38 8.32Q115.25 7.87 114.97 7.53L114.97 7.53L114.97 7.53Q114.70 7.18 114.28 6.98L114.28 6.98L114.28 6.98Q113.85 6.78 113.25 6.78L113.25 6.78L113.25 6.78Q112.11 6.78 111.55 7.60L111.55 7.60L111.55 7.60Q110.98 8.43 110.98 9.77L110.98 9.77L110.98 11.79L110.98 11.79Q110.98 13.23 111.55 14.01L111.55 14.01L111.55 14.01Q112.11 14.78 113.27 14.78L113.27 14.78L113.27 14.78Q114.32 14.78 114.92 14.11L114.92 14.11L114.92 14.11Q115.51 13.44 115.51 12.24L115.51 12.24L115.51 12.07L112.32 12.07ZM144.45 14.78L144.45 14.78L144.45 14.78Q145.05 14.78 145.48 14.58L145.48 14.58L145.48 14.58Q145.91 14.38 146.18 14.04L146.18 14.04L146.18 14.04Q146.45 13.69 146.59 13.25L146.59 13.25L146.59 13.25Q146.72 12.81 146.72 12.32L146.72 12.32L146.72 12.15L147.90 12.15L147.90 12.32L147.90 12.32Q147.90 13.06 147.67 13.71L147.67 13.71L147.67 13.71Q147.45 14.36 147.01 14.85L147.01 14.85L147.01 14.85Q146.58 15.33 145.94 15.60L145.94 15.60L145.94 15.60Q145.29 15.88 144.45 15.88L144.45 15.88L144.45 15.88Q142.83 15.88 141.92 14.85L141.92 14.85L141.92 14.85Q141.01 13.83 141.01 11.87L141.01 11.87L141.01 9.69L141.01 9.69Q141.01 7.78 141.92 6.73L141.92 6.73L141.92 6.73Q142.83 5.68 144.45 5.68L144.45 5.68L144.45 5.68Q145.29 5.68 145.94 5.96L145.94 5.96L145.94 5.96Q146.58 6.23 147.01 6.71L147.01 6.71L147.01 6.71Q147.45 7.20 147.67 7.85L147.67 7.85L147.67 7.85Q147.90 8.50 147.90 9.24L147.90 9.24L147.90 9.41L146.72 9.41L146.72 9.24L146.72 9.24Q146.71 8.76 146.57 8.32L146.57 8.32L146.57 8.32Q146.44 7.87 146.17 7.53L146.17 7.53L146.17 7.53Q145.89 7.18 145.47 6.98L145.47 6.98L145.47 6.98Q145.05 6.78 144.45 6.78L144.45 6.78L144.45 6.78Q143.32 6.78 142.75 7.60L142.75 7.60L142.75 7.60Q142.18 8.43 142.18 9.77L142.18 9.77L142.18 11.79L142.18 11.79Q142.18 13.23 142.75 14.01L142.75 14.01L142.75 14.01Q143.32 14.78 144.45 14.78ZM157.00 15.68L157.00 5.88L162.93 5.88L162.93 6.97L158.17 6.97L158.17 10.22L162.85 10.22L162.85 11.31L158.17 11.31L158.17 14.59L163.02 14.59L163.02 15.68L157.00 15.68ZM174.62 5.88L177.45 15.18L177.62 15.18L177.62 5.88L178.79 5.88L178.79 15.68L176.44 15.68L173.61 6.38L173.45 6.38L173.45 15.68L172.27 15.68L172.27 5.88L174.62 5.88ZM187.66 6.97L187.66 5.88L194.54 5.88L194.54 6.97L191.69 6.97L191.69 15.68L190.51 15.68L190.51 6.97L187.66 6.97ZM203.70 15.68L203.70 5.88L209.64 5.88L209.64 6.97L204.88 6.97L204.88 10.22L209.55 10.22L209.55 11.31L204.88 11.31L204.88 14.59L209.72 14.59L209.72 15.68L203.70 15.68ZM225.30 12.15L225.30 15.68L224.13 15.68L224.13 12.40L224.13 12.40Q224.13 12.04 223.96 11.84L223.96 11.84L223.96 11.84Q223.79 11.65 223.37 11.65L223.37 11.65L220.32 11.65L220.32 15.68L219.14 15.68L219.14 5.88L222.64 5.88L222.64 5.88Q223.40 5.88 223.96 6.10L223.96 6.10L223.96 6.10Q224.52 6.31 224.89 6.68L224.89 6.68L224.89 6.68Q225.26 7.04 225.45 7.53L225.45 7.53L225.45 7.53Q225.64 8.01 225.64 8.54L225.64 8.54L225.64 8.96L225.64 8.96Q225.64 9.51 225.34 10.05L225.34 10.05L225.34 10.05Q225.04 10.60 224.41 10.89L224.41 10.89L224.41 11.06L224.41 11.06Q224.83 11.13 225.06 11.40L225.06 11.40L225.06 11.40Q225.30 11.66 225.30 12.15L225.30 12.15ZM220.32 6.97L220.32 10.56L222.50 10.56L222.50 10.56Q223.50 10.56 223.98 10.13L223.98 10.13L223.98 10.13Q224.46 9.70 224.46 8.88L224.46 8.88L224.46 8.62L224.46 8.62Q224.46 7.88 223.98 7.43L223.98 7.43L223.98 7.43Q223.50 6.97 222.50 6.97L222.50 6.97L220.32 6.97Z"></path></g></svg>